<svg width="20" height="20" viewBox="0 0 20 20" fill="none" xmlns="http://www.w3.org/2000/svg">
<path d="M5.556 6.36405C5.46694 7.31405 5.40444 8.9953 5.96538 9.71092C5.96538 9.71092 5.70132 7.86405 8.0685 5.54686C9.02163 4.61405 9.24194 3.3453 8.90913 2.39373C8.72007 1.85467 8.37475 1.40936 8.07475 1.09842C7.89975 0.915609 8.03413 0.614047 8.28882 0.624984C9.82944 0.693734 12.3263 1.12186 13.3873 3.78436C13.8529 4.95311 13.8873 6.16092 13.6654 7.38905C13.5248 8.17342 13.0248 9.91717 14.1654 10.1312C14.9794 10.2844 15.3732 9.63748 15.5498 9.17186C15.6232 8.97811 15.8779 8.92967 16.0154 9.08436C17.3904 10.6484 17.5076 12.4906 17.2232 14.0765C16.6732 17.1422 13.5685 19.3734 10.4841 19.3734C6.631 19.3734 3.56381 17.1687 2.7685 13.1781C2.44819 11.5672 2.61069 8.37967 5.09507 6.12967C5.27944 5.96092 5.581 6.11092 5.556 6.36405Z" fill="url(#paint0_radial)"/>
<path d="M11.8923 12.0969C10.472 10.2687 11.1079 8.1828 11.4564 7.35155C11.5032 7.24217 11.3782 7.13905 11.2798 7.20624C10.6689 7.62186 9.41729 8.59999 8.83448 9.97655C8.04542 11.8375 8.10167 12.7484 8.56886 13.8609C8.85011 14.5312 8.52354 14.6734 8.35948 14.6984C8.20011 14.7234 8.05323 14.6172 7.93604 14.5062C7.59892 14.1826 7.35868 13.7714 7.24229 13.3187C7.21729 13.2219 7.09073 13.1953 7.03292 13.275C6.59542 13.8797 6.36886 14.85 6.35792 15.5359C6.32354 17.6562 8.07511 19.375 10.1939 19.375C12.8642 19.375 14.8095 16.4219 13.2751 13.9531C12.8298 13.2344 12.411 12.764 11.8923 12.0969Z" fill="url(#paint1_radial)"/>
<defs>
<radialGradient id="paint0_radial" cx="0" cy="0" r="1" gradientUnits="userSpaceOnUse" gradientTransform="translate(9.72097 19.422) rotate(-179.751) scale(11.0293 18.0969)">
<stop offset="0.314" stop-color="#FF9800"/>
<stop offset="0.662" stop-color="#FF6D00"/>
<stop offset="0.972" stop-color="#F44336"/>
</radialGradient>
<radialGradient id="paint1_radial" cx="0" cy="0" r="1" gradientUnits="userSpaceOnUse" gradientTransform="translate(10.3407 8.44661) rotate(90.5787) scale(11.5401 8.68476)">
<stop offset="0.214" stop-color="#FFF176"/>
<stop offset="0.328" stop-color="#FFF27D"/>
<stop offset="0.487" stop-color="#FFF48F"/>
<stop offset="0.672" stop-color="#FFF7AD"/>
<stop offset="0.793" stop-color="#FFF9C4"/>
<stop offset="0.822" stop-color="#FFF8BD" stop-opacity="0.804"/>
<stop offset="0.863" stop-color="#FFF6AB" stop-opacity="0.529"/>
<stop offset="0.91" stop-color="#FFF38D" stop-opacity="0.209"/>
<stop offset="0.941" stop-color="#FFF176" stop-opacity="0"/>
</radialGradient>
</defs>
</svg>
