<svg width="36" height="37" viewBox="0 0 36 37" fill="none" xmlns="http://www.w3.org/2000/svg">
<circle cx="18" cy="18.2168" r="18" fill="#E2389E"/>
<path d="M23.9225 11.0176H12.9771C11.7413 11.0176 10.7998 11.9591 10.7998 13.1949V24.1403C10.7998 25.376 11.7413 26.3176 12.9771 26.3176H23.9225C25.1583 26.3176 26.0998 25.376 26.0998 24.1403V13.1949C26.0998 11.9591 25.1583 11.0176 23.9225 11.0176ZM18.4498 23.2576C20.9802 23.2576 23.0398 21.2568 23.0398 18.8441C23.0398 18.4322 22.981 17.9614 22.8633 17.6083H24.1579V23.846C24.1579 24.1403 23.9225 24.4345 23.5694 24.4345H13.3302C13.036 24.4345 12.7417 24.1991 12.7417 23.846V17.5495H14.0952C13.9775 17.9614 13.9187 18.3733 13.9187 18.7853C13.8598 21.2568 15.9194 23.2576 18.4498 23.2576ZM18.4498 21.4922C16.8021 21.4922 15.5075 20.1976 15.5075 18.6087C15.5075 17.0199 16.8021 15.7253 18.4498 15.7253C20.0975 15.7253 21.3921 17.0199 21.3921 18.6087C21.3921 20.2564 20.0975 21.4922 18.4498 21.4922ZM24.099 15.1957C24.099 15.5487 23.8048 15.843 23.4517 15.843H21.804C21.451 15.843 21.1567 15.5487 21.1567 15.1957V13.6068C21.1567 13.2537 21.451 12.9595 21.804 12.9595H23.4517C23.8048 12.9595 24.099 13.2537 24.099 13.6068V15.1957Z" fill="white"/>
</svg>
