<svg width="36" height="37" viewBox="0 0 36 37" fill="none" xmlns="http://www.w3.org/2000/svg">
<circle cx="18" cy="18.1094" r="18" fill="#2EAEE4"/>
<path d="M8.41573 18.4468L12.554 19.9899L14.1672 25.1803C14.2374 25.531 14.6582 25.6011 14.9388 25.3907L17.2534 23.4969C17.4638 23.2865 17.8145 23.2865 18.0951 23.4969L22.2334 26.513C22.5139 26.7234 22.9348 26.5831 23.0049 26.2324L26.0911 11.5029C26.1612 11.1522 25.8105 10.8015 25.4598 10.9418L8.41573 17.535C7.99489 17.6753 7.99489 18.3065 8.41573 18.4468ZM13.9568 19.2184L22.0931 14.2384C22.2333 14.1683 22.3736 14.3787 22.2334 14.4488L15.57 20.6913C15.3596 20.9017 15.1492 21.1823 15.1492 21.533L14.9388 23.2164C14.9388 23.4268 14.5881 23.4969 14.5179 23.2164L13.6762 20.1302C13.4658 19.7795 13.6061 19.3587 13.9568 19.2184Z" fill="white"/>
</svg>
